<?xml version="1.0" standalone="no"?>
<!DOCTYPE svg PUBLIC "-//W3C//DTD SVG 20010904//EN"
 "http://www.w3.org/TR/2001/REC-SVG-20010904/DTD/svg10.dtd">
<svg version="1.0" xmlns="http://www.w3.org/2000/svg"
 width="780.000000pt" height="264.000000pt" viewBox="0 0 780.000000 264.000000"
 preserveAspectRatio="xMidYMid meet">

<g transform="translate(0.000000,264.000000) scale(0.100000,-0.100000)"
fill="#000000" stroke="none">
<path d="M4623 2570 c0 -41 2 -58 4 -37 2 20 2 54 0 75 -2 20 -4 3 -4 -38z"/>
<path d="M4664 2355 c0 -159 2 -223 3 -142 2 82 2 212 0 290 -1 78 -3 12 -3
-148z"/>
<path d="M6954 2325 c0 -126 2 -177 3 -112 2 65 2 168 0 230 -1 62 -3 9 -3
-118z"/>
<path d="M6134 2250 c0 -162 2 -229 3 -147 2 81 2 213 0 295 -1 81 -3 14 -3
-148z"/>
<path d="M6165 2025 c0 -286 1 -402 2 -257 2 145 2 379 0 520 -1 141 -2 23 -2
-263z"/>
<path d="M1830 2524 c-500 -64 -887 -382 -1038 -854 -38 -118 -52 -219 -52
-364 0 -560 383 -1039 942 -1176 122 -31 335 -38 466 -16 398 67 727 309 902
663 26 54 58 131 71 171 l23 72 155 99 c86 54 177 112 203 128 l48 29 -202
154 -201 155 -19 70 c-28 107 -137 317 -212 412 -109 135 -270 265 -419 337
-72 35 -215 84 -300 102 -71 15 -300 26 -367 18z m680 -539 c9 -11 11 -38 6
-101 -7 -83 -7 -85 13 -75 29 16 31 14 31 -19 0 -29 -29 -70 -50 -70 -14 0
-13 -257 1 -266 19 -12 42 23 59 91 17 69 37 85 32 25 -9 -92 -46 -165 -88
-176 -22 -6 -32 -2 -51 21 -13 15 -25 26 -27 24 -1 -2 -12 -20 -24 -40 -40
-66 -116 -85 -162 -39 -18 18 -19 18 -25 -10 -9 -39 -42 -80 -65 -80 -21 0
-60 44 -61 69 0 9 -7 -2 -15 -24 -8 -22 -25 -50 -39 -62 -22 -19 -29 -21 -50
-11 -14 6 -25 16 -25 22 -1 6 -7 -6 -15 -27 -29 -82 -102 -117 -127 -62 -11
24 -11 24 -34 -25 -36 -77 -89 -81 -127 -9 -15 27 -17 49 -13 109 l5 75 -30
-65 c-17 -36 -38 -101 -47 -145 -15 -67 -20 -80 -37 -80 -15 0 -21 8 -23 32
l-3 31 -29 -16 c-16 -9 -32 -28 -35 -41 -10 -38 -42 -77 -75 -91 -25 -10 -34
-10 -55 4 -43 28 -58 71 -53 150 5 80 24 124 76 179 39 40 69 48 79 20 3 -10
13 -26 22 -36 9 -11 17 -47 21 -95 l5 -77 19 28 c14 21 20 54 25 135 l6 107
35 0 c38 0 38 -1 25 -73 -5 -28 5 -15 42 58 36 71 53 96 70 98 34 5 54 -34 43
-83 -15 -62 -12 -188 4 -210 13 -18 14 -18 23 1 19 35 33 124 33 209 0 84 0
85 -25 85 -33 0 -32 16 3 49 27 24 29 34 36 126 10 130 23 156 62 118 14 -14
16 -30 11 -100 l-6 -83 24 6 c22 5 25 3 25 -21 0 -17 -11 -37 -30 -55 l-31
-29 3 -123 c3 -108 5 -123 21 -126 24 -5 42 41 62 159 25 147 75 239 130 239
30 0 42 -22 29 -58 -12 -34 -28 -38 -41 -10 l-11 23 -10 -25 c-15 -40 -23
-142 -14 -175 l9 -30 12 30 c7 17 17 53 24 80 13 61 11 58 36 50 18 -5 21 -14
21 -65 0 -62 13 -110 29 -110 22 0 35 50 36 145 2 115 21 173 74 218 39 32 45
33 71 7 24 -24 26 -77 4 -108 -21 -30 -34 -19 -34 29 0 21 -4 39 -8 39 -17 0
-32 -52 -32 -111 0 -111 52 -169 106 -118 33 31 44 77 44 186 0 89 -1 93 -21
90 -33 -3 -33 18 -1 51 26 27 29 38 35 118 4 49 10 99 13 112 7 25 36 29 54 7z
m430 -300 c10 -12 10 -28 1 -75 -19 -95 -41 -289 -41 -360 0 -71 -12 -102 -30
-84 -12 12 -15 489 -4 519 8 19 58 20 74 0z m-1730 -123 c36 -29 40 -115 8
-162 -37 -54 -54 -47 -50 22 6 103 -32 129 -72 51 -71 -142 -87 -463 -28 -583
14 -28 23 -35 46 -35 41 0 63 35 84 135 14 67 21 86 36 88 17 4 18 -1 11 -54
-16 -127 -59 -220 -115 -249 -87 -45 -159 14 -190 156 -16 72 -8 251 15 339
35 131 102 253 159 290 39 25 67 25 96 2z m1486 -240 c45 -30 40 -111 -12
-198 -40 -66 -37 -87 14 -92 38 -4 55 19 75 98 16 60 34 66 29 10 -5 -52 -41
-127 -74 -155 -36 -30 -86 -33 -115 -6 -20 19 -20 18 -32 -16 -41 -113 -131
-93 -141 31 l-5 61 -30 -104 c-30 -105 -43 -124 -71 -100 -14 11 -16 28 -11
104 5 86 5 88 -8 52 -8 -21 -22 -73 -30 -115 -18 -87 -30 -108 -51 -91 -11 9
-14 47 -14 164 0 132 2 154 16 159 29 11 54 -3 55 -32 l1 -27 9 30 c27 81 42
105 65 105 30 0 44 -28 38 -76 -4 -33 -1 -28 23 31 29 71 50 88 79 65 12 -10
13 -32 8 -120 -7 -108 -2 -160 16 -160 22 0 34 50 35 150 1 88 5 113 24 152
32 67 77 100 107 80z m208 -188 c20 -8 21 -57 2 -74 -21 -16 -60 -9 -64 13 -4
19 23 67 37 67 5 0 16 -3 25 -6z"/>
<path d="M1358 1214 c-26 -61 -23 -178 7 -200 22 -16 42 -4 56 33 6 18 3 32
-17 60 -21 32 -25 47 -22 96 2 31 2 57 0 57 -2 0 -12 -21 -24 -46z"/>
<path d="M1420 1183 c0 -21 5 -45 10 -53 7 -11 10 -2 10 32 0 26 -4 50 -10 53
-6 4 -10 -9 -10 -32z"/>
<path d="M2649 1249 c-6 -12 -13 -49 -16 -83 l-4 -61 20 23 c25 29 42 88 35
119 -8 29 -20 29 -35 2z"/>
<path d="M5464 2285 c0 -121 2 -169 3 -107 2 62 2 161 0 220 -1 59 -3 8 -3
-113z"/>
<path d="M5492 2465 c0 -16 2 -22 5 -12 2 9 2 23 0 30 -3 6 -5 -1 -5 -18z"/>
<path d="M5495 1975 c0 -247 1 -347 2 -222 2 126 2 328 0 450 -1 122 -2 20 -2
-228z"/>
<path d="M4634 2115 c0 -137 2 -195 3 -128 2 67 2 179 0 250 -1 70 -3 16 -3
-122z"/>
<path d="M6978 1869 c-2 -316 -3 -319 -8 -114 l-6 210 -3 -250 c-2 -137 -3
-253 -2 -257 0 -3 -23 -9 -51 -13 -209 -29 -361 -165 -399 -359 -31 -150 56
-333 201 -426 170 -109 408 -113 572 -9 65 42 135 120 166 187 24 50 27 69 27
162 0 99 -2 109 -34 174 -68 139 -196 231 -364 264 l-86 17 -1 364 c0 201 -3
367 -5 370 -3 2 -6 -142 -7 -320z m-1 -371 c-3 -7 -5 -2 -5 12 0 14 2 19 5 13
2 -7 2 -19 0 -25z m31 -80 c2 -9 -5 -21 -16 -27 -25 -14 -58 9 -49 33 9 23 61
18 65 -6z m141 -175 c81 -42 115 -94 119 -186 3 -63 1 -77 -20 -107 -50 -74
-144 -104 -187 -61 -17 17 -21 18 -32 5 -19 -23 -65 -44 -96 -44 -108 0 -145
140 -62 234 41 47 99 68 179 64 l65 -3 0 -100 c0 -95 1 -100 22 -103 52 -8 75
110 36 185 -38 74 -146 104 -257 71 -89 -27 -155 -132 -144 -231 16 -142 136
-208 293 -162 56 16 60 16 72 -1 20 -27 12 -36 -47 -57 -114 -39 -250 -18
-324 51 -98 92 -100 258 -4 367 97 110 261 143 387 78z"/>
<path d="M6983 1070 c-34 -14 -55 -53 -51 -97 2 -30 7 -39 24 -41 34 -5 64 41
64 99 0 51 -2 53 -37 39z"/>
<path d="M4661 2044 c0 -11 3 -14 6 -6 3 7 2 16 -1 19 -3 4 -6 -2 -5 -13z"/>
<path d="M5470 1626 c-3 -136 -2 -204 6 -214 9 -13 12 -13 19 -1 11 17 7 79
-5 94 -5 6 -11 81 -12 166 l-3 154 -5 -199z m17 -173 c-3 -10 -5 -4 -5 12 0
17 2 24 5 18 2 -7 2 -21 0 -30z"/>
<path d="M4636 1668 c-7 -51 -11 -57 -35 -61 l-26 -4 28 -2 c39 -2 24 -21 -16
-21 -99 0 -232 -66 -316 -156 -81 -86 -105 -149 -106 -274 0 -88 2 -100 34
-164 80 -163 240 -256 442 -256 193 0 363 99 441 258 73 148 37 343 -84 459
-74 70 -212 133 -293 133 -41 0 -57 19 -18 21 27 2 27 2 3 6 -27 5 -40 19 -39
43 0 10 3 8 9 -5 9 -20 9 -20 9 1 1 11 -3 24 -8 30 -5 5 -11 18 -13 29 -3 11
-8 -6 -12 -37z m42 -115 c4 -29 -36 -43 -54 -18 -18 24 -7 44 24 42 19 -2 28
-9 30 -24z m270 -210 c-3 -15 -72 -69 -249 -193 l-56 -39 -144 100 c-79 56
-150 107 -158 114 -33 31 -2 35 305 35 281 0 305 -1 302 -17z m-1 -370 c-6 -5
-227 146 -227 155 1 4 51 42 113 85 l112 78 3 -157 c1 -86 1 -159 -1 -161z
m-495 235 c59 -40 107 -76 108 -80 0 -10 -218 -157 -224 -150 -9 8 -7 302 1
302 4 0 55 -33 115 -72z m174 -118 c8 -8 19 -7 37 1 24 11 35 6 141 -64 64
-42 116 -79 116 -82 0 -3 -124 -5 -276 -5 -190 0 -275 3 -272 11 5 14 210 148
229 148 8 1 20 -4 25 -9z"/>
<path d="M4528 1593 c7 -3 16 -2 19 1 4 3 -2 6 -13 5 -11 0 -14 -3 -6 -6z"/>
<path d="M4748 1593 c7 -3 16 -2 19 1 4 3 -2 6 -13 5 -11 0 -14 -3 -6 -6z"/>
<path d="M4488 1583 c7 -3 16 -2 19 1 4 3 -2 6 -13 5 -11 0 -14 -3 -6 -6z"/>
<path d="M4788 1583 c7 -3 16 -2 19 1 4 3 -2 6 -13 5 -11 0 -14 -3 -6 -6z"/>
<path d="M4830 1570 c8 -5 20 -10 25 -10 6 0 3 5 -5 10 -8 5 -19 10 -25 10 -5
0 -3 -5 5 -10z"/>
<path d="M4371 1539 c-63 -36 -151 -120 -175 -167 -24 -47 -14 -39 23 18 37
57 95 107 172 150 30 16 50 30 44 30 -5 0 -35 -14 -64 -31z"/>
<path d="M4930 1523 c32 -22 131 -120 153 -153 16 -22 16 -22 0 8 -21 39 -117
133 -153 151 l-25 12 25 -18z"/>
<path d="M6898 1463 c6 -2 18 -2 25 0 6 3 1 5 -13 5 -14 0 -19 -2 -12 -5z"/>
<path d="M7033 1463 c9 -2 25 -2 35 0 9 3 1 5 -18 5 -19 0 -27 -2 -17 -5z"/>
<path d="M7098 1453 c7 -3 16 -2 19 1 4 3 -2 6 -13 5 -11 0 -14 -3 -6 -6z"/>
<path d="M7138 1443 c7 -3 16 -2 19 1 4 3 -2 6 -13 5 -11 0 -14 -3 -6 -6z"/>
<path d="M6760 1430 c-8 -5 -10 -10 -5 -10 6 0 17 5 25 10 8 5 11 10 5 10 -5
0 -17 -5 -25 -10z"/>
<path d="M7190 1425 c14 -8 30 -14 35 -14 6 0 -1 6 -15 14 -14 8 -29 14 -35
14 -5 0 1 -6 15 -14z"/>
<path d="M5388 1423 c7 -3 16 -2 19 1 4 3 -2 6 -13 5 -11 0 -14 -3 -6 -6z"/>
<path d="M6139 1338 c-2 -48 -1 -103 2 -122 l6 -35 -56 -12 c-136 -28 -254
-120 -314 -246 -30 -64 -32 -74 -32 -183 0 -110 1 -118 33 -182 121 -246 451
-291 653 -89 63 64 104 139 121 223 7 32 16 58 20 58 5 0 7 -10 5 -22 -2 -13
-2 -17 0 -10 7 18 14 15 57 -25 22 -21 13 -9 -20 27 -34 36 -71 84 -83 107
-27 55 -51 146 -51 199 0 38 -5 46 -42 77 -24 19 -54 40 -68 46 l-25 12 25
-20 c24 -20 22 -20 -40 3 -36 13 -84 27 -107 31 l-41 6 -11 62 c-7 34 -15 89
-20 122 l-8 60 -4 -87z m46 -193 c0 -22 -31 -33 -47 -17 -17 17 -1 44 24 40
15 -2 23 -10 23 -23z m85 -98 c0 -14 9 -26 23 -32 22 -10 22 -12 25 -255 2
-186 -1 -250 -10 -262 -17 -23 -259 -38 -283 -18 -13 10 -15 49 -15 252 0 146
4 247 10 259 7 13 21 19 44 19 18 0 61 3 95 6 48 5 61 10 61 24 0 22 9 30 32
30 12 0 18 -7 18 -23z"/>
<path d="M6130 971 l-75 -6 0 -145 0 -145 105 3 c58 2 109 7 113 11 4 4 6 70
5 147 l-3 139 -35 1 c-19 0 -69 -2 -110 -5z"/>
<path d="M6227 644 c-14 -14 -7 -25 13 -22 12 2 21 8 21 13 0 12 -24 18 -34 9z"/>
<path d="M6060 630 c0 -5 11 -10 25 -10 14 0 25 5 25 10 0 6 -11 10 -25 10
-14 0 -25 -4 -25 -10z"/>
<path d="M6140 630 c0 -5 11 -10 25 -10 14 0 25 5 25 10 0 6 -11 10 -25 10
-14 0 -25 -4 -25 -10z"/>
<path d="M6238 593 c-27 -7 -21 -23 7 -23 14 0 25 4 25 9 0 13 -12 18 -32 14z"/>
<path d="M6062 579 c2 -6 7 -10 11 -10 4 1 14 1 22 1 8 0 15 5 15 10 0 6 -12
10 -26 10 -14 0 -24 -5 -22 -11z"/>
<path d="M6140 580 c0 -5 11 -10 25 -10 14 0 25 5 25 10 0 6 -11 10 -25 10
-14 0 -25 -4 -25 -10z"/>
<path d="M6067 534 c-14 -14 -7 -25 13 -22 12 2 21 8 21 13 0 12 -24 18 -34 9z"/>
<path d="M6140 530 c0 -5 11 -10 25 -10 14 0 25 5 25 10 0 6 -11 10 -25 10
-14 0 -25 -4 -25 -10z"/>
<path d="M6220 530 c0 -5 11 -10 25 -10 14 0 25 5 25 10 0 6 -11 10 -25 10
-14 0 -25 -4 -25 -10z"/>
<path d="M5367 1399 c-58 -14 -138 -55 -185 -95 -24 -20 -46 -33 -50 -30 -9 9
46 53 117 93 31 18 52 33 48 33 -14 0 -71 -32 -120 -67 -26 -20 -49 -34 -51
-32 -2 2 -8 13 -15 24 -7 11 -10 13 -7 5 33 -101 38 -128 34 -201 -7 -124 -75
-240 -193 -328 -16 -12 -23 -19 -15 -15 8 4 34 22 57 41 l42 34 25 -48 c14
-26 42 -66 62 -88 l36 -40 -34 45 c-42 54 -81 127 -76 142 2 6 17 -14 33 -46
96 -191 348 -279 575 -201 39 13 42 13 26 0 -11 -8 -24 -15 -30 -15 -5 0 -7
-3 -4 -6 4 -3 20 2 38 11 18 9 33 15 34 13 2 -2 17 -33 34 -70 30 -66 103
-152 150 -177 35 -19 25 -7 -22 27 -55 40 -121 137 -142 210 -19 65 -21 170
-4 233 29 108 110 217 207 278 45 29 54 43 13 21 -16 -8 -22 -5 -35 17 -9 16
-14 20 -11 11 9 -30 -1 -20 -40 37 -20 31 -55 71 -78 90 -57 46 -159 93 -224
101 -46 6 -52 5 -46 -10 6 -16 -11 -46 -27 -46 -16 0 -38 31 -33 45 7 17 -27
19 -89 4z m89 -92 c1 -1 4 -39 7 -85 7 -88 7 -88 -42 -95 -45 -7 -45 -25 -6
-150 29 -92 42 -120 59 -127 11 -4 43 -40 70 -79 27 -39 51 -69 53 -67 3 2
-19 36 -47 76 -29 39 -51 72 -49 74 7 6 48 26 53 26 9 0 96 -134 96 -148 0
-24 -87 -55 -136 -47 -37 5 -48 13 -80 58 -82 114 -131 251 -141 397 -5 83 -5
86 23 119 34 40 80 63 114 55 14 -3 25 -6 26 -7z"/>
<path d="M5393 1255 c0 -22 2 -30 4 -17 2 12 2 30 0 40 -3 9 -5 -1 -4 -23z"/>
<path d="M6694 1394 c-18 -14 -18 -15 4 -4 12 6 22 13 22 15 0 8 -5 6 -26 -11z"/>
<path d="M7240 1407 c0 -2 22 -18 49 -36 148 -95 232 -273 204 -434 -22 -130
-109 -249 -230 -315 -32 -17 -53 -32 -47 -32 17 0 127 69 162 103 113 109 158
280 113 426 -26 84 -59 137 -128 202 -49 47 -123 99 -123 86z"/>
<path d="M5691 1386 c2 -2 15 -9 29 -15 24 -11 24 -11 6 3 -16 13 -49 24 -35
12z"/>
<path d="M6644 1358 l-19 -23 23 19 c12 11 22 21 22 23 0 8 -8 2 -26 -19z"/>
<path d="M5820 1298 c24 -27 45 -48 47 -48 8 0 0 9 -44 50 l-48 45 45 -47z"/>
<path d="M6599 1323 c-13 -16 -12 -17 4 -4 16 13 21 21 13 21 -2 0 -10 -8 -17
-17z"/>
<path d="M4162 1305 c-7 -14 -12 -31 -12 -38 1 -7 7 3 16 22 17 39 13 54 -4
16z"/>
<path d="M6564 1278 l-19 -23 23 19 c21 18 27 26 19 26 -2 0 -12 -10 -23 -22z"/>
<path d="M4142 1225 c0 -16 2 -22 5 -12 2 9 2 23 0 30 -3 6 -5 -1 -5 -18z"/>
<path d="M5880 1220 c6 -11 13 -20 16 -20 2 0 0 9 -6 20 -6 11 -13 20 -16 20
-2 0 0 -9 6 -20z"/>
<path d="M6520 1209 c-7 -11 -10 -23 -7 -25 2 -2 9 7 15 21 14 30 7 33 -8 4z"/>
<path d="M6093 1193 c9 -2 23 -2 30 0 6 3 -1 5 -18 5 -16 0 -22 -2 -12 -5z"/>
<path d="M6218 1193 c7 -3 16 -2 19 1 4 3 -2 6 -13 5 -11 0 -14 -3 -6 -6z"/>
<path d="M4133 1155 c0 -22 2 -30 4 -17 2 12 2 30 0 40 -3 9 -5 -1 -4 -23z"/>
<path d="M6048 1183 c7 -3 16 -2 19 1 4 3 -2 6 -13 5 -11 0 -14 -3 -6 -6z"/>
<path d="M6000 1170 c-8 -5 -10 -10 -5 -10 6 0 17 5 25 10 8 5 11 10 5 10 -5
0 -17 -5 -25 -10z"/>
<path d="M4142 1085 c0 -16 2 -22 5 -12 2 9 2 23 0 30 -3 6 -5 -1 -5 -18z"/>
<path d="M4151 1042 c-2 -26 50 -121 92 -168 40 -46 148 -124 171 -124 6 0 -9
11 -33 25 -101 58 -171 135 -210 230 -11 28 -20 44 -20 37z"/>
<path d="M4880 765 c-14 -8 -20 -14 -14 -15 5 0 19 7 30 15 24 18 16 19 -16 0z"/>
<path d="M4440 740 c8 -5 20 -10 25 -10 6 0 3 5 -5 10 -8 5 -19 10 -25 10 -5
0 -3 -5 5 -10z"/>
<path d="M4815 740 c-13 -6 -15 -9 -5 -9 8 0 22 4 30 9 18 12 2 12 -25 0z"/>
<path d="M4488 723 c7 -3 16 -2 19 1 4 3 -2 6 -13 5 -11 0 -14 -3 -6 -6z"/>
<path d="M4528 713 c6 -2 18 -2 25 0 6 3 1 5 -13 5 -14 0 -19 -2 -12 -5z"/>
<path d="M4718 713 c6 -2 18 -2 25 0 6 3 1 5 -13 5 -14 0 -19 -2 -12 -5z"/>
<path d="M4613 703 c15 -2 37 -2 50 0 12 2 0 4 -28 4 -27 0 -38 -2 -22 -4z"/>
<path d="M5169 676 c13 -16 51 -41 51 -33 0 2 -15 14 -32 27 -21 15 -28 17
-19 6z"/>
<path d="M6770 600 c8 -5 20 -10 25 -10 6 0 3 5 -5 10 -8 5 -19 10 -25 10 -5
0 -3 -5 5 -10z"/>
<path d="M5608 593 c7 -3 16 -2 19 1 4 3 -2 6 -13 5 -11 0 -14 -3 -6 -6z"/>
<path d="M5568 583 c7 -3 16 -2 19 1 4 3 -2 6 -13 5 -11 0 -14 -3 -6 -6z"/>
<path d="M5448 573 c18 -2 45 -2 60 0 15 2 0 4 -33 4 -33 0 -45 -2 -27 -4z"/>
<path d="M6888 563 c7 -3 16 -2 19 1 4 3 -2 6 -13 5 -11 0 -14 -3 -6 -6z"/>
<path d="M7108 563 c6 -2 18 -2 25 0 6 3 1 5 -13 5 -14 0 -19 -2 -12 -5z"/>
<path d="M6968 553 c23 -2 59 -2 80 0 20 2 1 4 -43 4 -44 0 -61 -2 -37 -4z"/>
<path d="M6435 448 l-40 -43 43 40 c39 36 47 45 39 45 -2 0 -21 -19 -42 -42z"/>
<path d="M6048 323 c7 -3 16 -2 19 1 4 3 -2 6 -13 5 -11 0 -14 -3 -6 -6z"/>
</g>
</svg>
