<?xml version="1.0" standalone="no"?>
<!DOCTYPE svg PUBLIC "-//W3C//DTD SVG 20010904//EN"
 "http://www.w3.org/TR/2001/REC-SVG-20010904/DTD/svg10.dtd">
<svg version="1.0" xmlns="http://www.w3.org/2000/svg"
 width="463.000000pt" height="434.000000pt" viewBox="0 0 463.000000 434.000000"
 preserveAspectRatio="xMidYMid meet">

<g transform="translate(0.000000,434.000000) scale(0.100000,-0.100000)"
fill="#000000" stroke="none">
<path d="M3463 4321 c-18 -11 -39 -34 -48 -51 l-16 -30 -32 17 c-28 14 -61 16
-242 14 -193 -2 -212 -3 -238 -22 -20 -15 -36 -19 -57 -14 -45 10 -138 -21
-176 -59 -24 -24 -34 -44 -39 -82 -13 -100 -14 -102 -50 -108 -33 -7 -68 -40
-80 -75 -3 -9 -23 -25 -45 -35 -22 -9 -58 -37 -81 -60 l-42 -43 -38 38 c-58
58 -160 73 -249 35 -13 -5 -15 1 -12 32 5 46 -33 97 -79 110 -35 9 -33 3 -24
69 18 131 -87 184 -236 117 -66 -30 -114 -77 -124 -123 -4 -19 -15 -33 -28
-37 -36 -11 -65 -44 -82 -93 -19 -58 -59 -85 -96 -65 -38 21 -96 16 -160 -12
-58 -26 -59 -26 -86 -8 -80 54 -148 58 -242 14 -37 -18 -61 -25 -58 -17 14 38
46 168 52 212 13 107 -31 216 -105 259 -26 16 -51 20 -105 19 -173 -2 -371
-129 -493 -315 -80 -123 -122 -249 -143 -430 -34 -291 59 -529 240 -611 35
-16 66 -22 126 -22 102 0 161 21 247 86 l67 50 38 -20 c86 -43 159 -36 239 25
l46 36 45 -44 c43 -43 45 -43 115 -43 69 0 72 1 100 35 l30 35 35 -32 c57 -55
142 -65 216 -26 26 13 33 13 68 -1 53 -21 125 -20 175 3 42 19 42 19 91 -5 52
-24 131 -26 173 -4 15 8 33 6 70 -6 43 -14 60 -15 107 -5 31 6 66 17 77 25 18
11 26 10 60 -7 59 -31 144 -34 216 -8 56 21 61 21 91 6 78 -41 192 -10 285 77
l31 29 20 -38 c28 -56 90 -86 168 -80 33 2 83 14 111 26 l51 22 38 -22 c44
-26 131 -29 186 -6 39 16 89 64 89 84 0 20 18 15 25 -7 18 -56 164 -95 254
-68 40 12 51 11 100 -5 42 -14 75 -18 132 -15 91 5 144 32 209 105 81 90 138
256 111 320 -14 34 -58 63 -95 63 -14 0 -26 2 -26 4 0 2 7 33 16 67 49 192
-73 330 -247 278 -46 -14 -101 -58 -140 -112 -34 -46 -36 -36 -13 63 15 66 15
70 -6 110 -30 60 -96 127 -136 140 -19 6 -48 8 -66 5 l-31 -7 7 65 6 64 -39
36 c-95 86 -197 117 -258 78z m-2758 -97 c46 -22 65 -66 65 -154 0 -116 -59
-266 -126 -319 -31 -24 -53 -26 -79 -7 -18 13 -17 17 22 97 46 95 58 129 72
211 12 65 0 114 -27 121 -88 19 -182 -111 -238 -329 -86 -338 -20 -644 138
-644 45 0 89 29 138 91 60 76 67 94 73 194 3 50 13 111 22 136 23 66 77 126
125 139 22 6 42 15 45 20 11 18 81 11 109 -11 36 -29 54 -67 62 -133 7 -61 7
-60 34 -46 31 16 60 74 60 118 0 36 4 44 30 57 39 20 86 20 94 -1 4 -9 -9 -90
-29 -180 -19 -90 -35 -169 -35 -176 0 -7 22 39 49 102 57 136 119 262 135 272
22 15 63 7 85 -16 l22 -24 -21 -108 c-20 -106 -28 -261 -16 -302 15 -45 53
-38 90 19 23 33 26 49 26 118 0 69 19 254 35 343 4 27 4 28 -43 25 -46 -2 -47
-2 -50 31 l-3 32 50 0 c27 0 52 4 56 9 3 5 11 46 17 92 l11 82 45 19 c35 16
49 18 68 9 28 -12 28 -4 5 -111 -10 -47 -16 -88 -14 -93 2 -4 26 -5 51 -1 54
6 87 -10 76 -39 -5 -14 -19 -17 -69 -17 -35 0 -67 -4 -70 -10 -11 -17 -45
-231 -55 -346 -10 -112 -3 -195 19 -217 17 -17 76 17 106 61 21 32 26 53 29
123 2 46 11 104 20 129 23 63 84 139 131 164 72 38 169 23 193 -29 23 -49 24
-128 3 -209 -27 -104 -28 -177 -1 -201 18 -17 21 -17 45 -1 40 26 65 75 65
126 1 208 130 387 255 356 64 -16 80 -134 33 -238 -27 -59 -54 -81 -91 -76
-27 4 -26 10 9 146 28 104 26 130 -9 117 -42 -17 -94 -214 -83 -317 6 -64 36
-132 61 -142 56 -21 112 4 152 67 21 33 26 55 29 136 3 53 12 149 20 213 7 64
14 121 14 127 0 7 -13 9 -38 5 -44 -7 -68 12 -57 46 5 16 15 20 55 20 56 0 52
-6 70 108 11 76 20 89 70 102 72 19 80 4 55 -110 -23 -103 -23 -103 30 -96 60
10 85 1 85 -30 0 -23 -3 -24 -69 -24 -82 0 -72 15 -102 -165 -28 -170 -31
-377 -7 -401 15 -16 19 -16 55 3 29 15 47 37 76 91 27 50 44 72 57 72 30 0 33
-16 12 -62 -76 -166 -237 -225 -297 -108 l-15 28 -32 -30 c-98 -92 -239 -88
-298 7 -21 35 -23 35 -36 16 -24 -33 -79 -61 -122 -61 -35 0 -45 5 -68 33
l-26 33 -33 -33 c-28 -28 -40 -33 -80 -33 -41 0 -52 5 -80 34 l-32 35 -28 -29
c-37 -39 -84 -60 -133 -60 -32 0 -47 7 -71 31 -17 17 -31 38 -31 47 0 12 -6
10 -27 -10 -39 -36 -66 -48 -106 -48 -83 0 -121 84 -115 250 1 55 0 96 -3 92
-8 -9 -114 -259 -124 -292 -12 -39 -25 -50 -60 -50 -55 0 -59 13 -46 167 6 75
9 138 7 140 -2 2 -20 -6 -40 -17 -27 -17 -38 -32 -47 -63 -24 -90 -88 -180
-151 -213 -56 -29 -128 -9 -160 44 l-15 25 -31 -45 c-149 -217 -393 -206 -484
21 -21 51 -23 72 -22 236 0 211 15 281 89 432 68 138 157 227 258 259 57 17
93 17 132 -2z m2922 -19 c37 -22 43 -30 42 -58 0 -18 -17 -162 -38 -322 -21
-159 -37 -291 -36 -293 1 -1 21 53 45 120 53 152 127 323 147 339 21 18 57 -4
96 -59 l31 -43 -12 -67 c-7 -37 -19 -107 -28 -157 -11 -60 -15 -129 -12 -207
3 -105 5 -120 25 -140 19 -18 26 -20 47 -10 41 18 62 76 69 183 12 193 91 309
210 309 146 0 131 -229 -25 -395 l-59 -64 16 -30 c47 -92 143 -55 201 77 18
38 29 52 44 52 11 0 23 -6 26 -14 7 -17 -35 -102 -73 -146 -30 -36 -114 -80
-153 -80 -55 1 -144 61 -163 112 -3 9 -10 6 -21 -9 -47 -64 -142 -82 -195 -38
-55 47 -65 94 -57 278 3 89 9 180 12 202 l5 40 -21 -45 c-22 -46 -89 -212
-154 -381 -36 -95 -38 -97 -76 -107 -29 -7 -44 -6 -56 2 -15 11 -14 30 10 237
31 267 54 503 50 508 -6 7 -35 -73 -134 -374 -56 -170 -107 -321 -113 -335
-17 -33 -81 -58 -103 -39 -12 10 -15 24 -10 59 15 111 76 718 76 752 0 23 -5
41 -14 44 -7 3 -68 -2 -135 -11 -67 -9 -126 -13 -131 -10 -14 9 -12 48 3 68
10 13 40 16 195 19 183 3 184 3 203 -21 10 -13 19 -28 19 -35 0 -6 -16 -121
-35 -256 -19 -135 -34 -254 -34 -265 1 -24 -4 -37 79 225 68 213 127 378 142
398 16 19 47 14 95 -13z"/>
<path d="M950 3690 c0 -30 7 -48 30 -72 l29 -33 1 43 c0 49 -23 102 -45 102
-11 0 -15 -11 -15 -40z"/>
<path d="M2071 3683 c-37 -46 -56 -129 -56 -245 0 -86 3 -110 16 -124 39 -38
77 22 100 158 10 63 10 82 0 101 -11 20 -10 29 4 57 35 68 -18 112 -64 53z"/>
<path d="M854 3565 c-17 -116 17 -257 63 -263 37 -5 60 44 88 184 4 17 -3 23
-35 33 -24 7 -52 27 -74 52 l-34 41 -8 -47z"/>
<path d="M4160 3686 c-27 -60 -42 -143 -38 -213 l3 -58 27 45 c37 63 58 135
61 205 2 50 -1 60 -16 63 -13 3 -23 -9 -37 -42z"/>
<path d="M3661 2214 c0 -11 3 -14 6 -6 3 7 2 16 -1 19 -3 4 -6 -2 -5 -13z"/>
<path d="M985 1993 l-8 -93 -31 0 c-86 0 -231 -57 -311 -122 -333 -273 -223
-759 201 -884 38 -11 93 -17 154 -17 106 0 179 17 274 65 118 60 230 194 261
316 19 72 19 192 0 264 -43 168 -201 315 -390 363 -90 23 -100 21 -100 -17 0
-29 -4 -33 -29 -36 -30 -4 -46 10 -46 41 0 12 8 17 30 17 l29 0 -4 63 c-2 34
-8 78 -13 97 -8 31 -10 25 -17 -57z m360 -363 c3 -6 4 -18 0 -28 -8 -24 -328
-257 -352 -256 -21 0 -343 231 -350 251 -3 7 -3 20 1 28 5 13 53 15 350 15
221 0 347 -4 351 -10z m-567 -180 c67 -47 121 -90 120 -97 -3 -11 -219 -170
-245 -180 -10 -4 -13 36 -13 182 0 103 4 185 8 183 4 -1 63 -41 130 -88z m572
-89 c0 -112 -4 -182 -10 -186 -13 -8 -259 165 -260 183 0 6 3 12 8 12 4 0 59
38 122 85 63 47 120 85 127 85 10 0 13 -40 13 -179z m-332 -45 c20 14 29 9
157 -78 74 -51 135 -96 135 -100 0 -10 -627 -10 -634 0 -2 4 57 49 131 99 131
89 136 92 163 78 23 -12 30 -12 48 1z"/>
<path d="M1953 1865 c0 -22 2 -30 4 -17 2 12 2 30 0 40 -3 9 -5 -1 -4 -23z"/>
<path d="M3666 1851 c-3 -4 -6 -31 -7 -58 l-2 -50 -81 -16 c-389 -77 -563
-497 -332 -803 274 -364 867 -285 996 134 37 120 20 282 -42 390 -89 154 -257
262 -450 287 -52 7 -53 9 -49 88 2 27 -1 37 -13 37 -8 0 -17 -4 -20 -9z m52
-148 c2 -16 -4 -26 -22 -34 -32 -15 -56 2 -56 38 0 22 4 24 38 21 30 -2 38 -7
40 -25z m113 -184 c45 -11 109 -57 143 -101 14 -19 33 -62 41 -97 36 -137 -34
-260 -156 -277 -39 -5 -49 -3 -76 20 -31 26 -32 26 -42 8 -13 -25 -71 -52
-111 -52 -76 0 -123 56 -122 147 1 137 146 245 290 217 l47 -9 0 -120 c0 -116
1 -120 22 -123 66 -10 85 158 27 240 -40 56 -90 80 -167 81 -97 0 -143 -17
-201 -76 -57 -58 -76 -104 -76 -187 0 -104 46 -185 124 -221 57 -26 150 -25
222 2 55 21 58 21 71 3 24 -33 15 -51 -39 -74 -80 -35 -205 -39 -282 -10 -71
27 -133 82 -166 147 -21 41 -25 62 -25 143 0 89 2 99 34 158 85 157 259 228
442 181z"/>
<path d="M3680 1277 c-34 -17 -51 -54 -48 -107 3 -41 6 -45 30 -48 39 -5 68
45 68 116 0 56 -6 61 -50 39z"/>
<path d="M1949 1810 c-5 -121 -5 -120 17 -120 19 0 20 5 16 53 -2 28 -10 59
-18 67 -12 13 -14 13 -15 0z m18 -62 c-3 -7 -5 -2 -5 12 0 14 2 19 5 13 2 -7
2 -19 0 -25z"/>
<path d="M1800 1667 c-76 -26 -137 -60 -200 -114 -39 -32 -45 -42 -39 -63 13
-46 9 -161 -7 -224 -15 -57 -74 -179 -93 -191 -15 -8 70 -156 116 -202 99
-100 230 -155 372 -156 78 -1 103 4 225 40 12 3 16 1 12 -6 -9 -14 0 -14 24
-1 15 8 22 6 30 -7 10 -16 11 -16 5 2 -14 39 -17 200 -6 256 25 118 110 255
202 326 27 20 45 39 40 42 -4 4 -13 16 -20 29 -7 12 -16 20 -20 17 -5 -3 -23
17 -40 44 -38 59 -110 128 -171 163 -56 33 -160 68 -200 68 -25 0 -30 -4 -30
-25 0 -29 -28 -47 -53 -34 -9 6 -17 21 -17 34 0 22 -5 25 -32 25 -18 0 -62
-11 -98 -23z m128 -99 c6 -7 12 -55 14 -106 3 -101 -2 -112 -53 -112 -53 0
-53 -17 -4 -174 25 -81 45 -148 45 -150 0 -2 11 -6 25 -8 14 -3 25 -1 25 3 0
12 59 41 69 34 10 -6 97 -143 106 -168 4 -10 -3 -22 -20 -33 -26 -17 -27 -17
-52 12 -18 22 -21 23 -9 4 27 -42 21 -50 -42 -50 -35 0 -66 6 -79 15 -29 21
-111 148 -139 215 -55 135 -94 353 -75 413 13 37 75 103 106 110 39 9 73 7 83
-5z"/>
<path d="M4040 1656 c0 -2 8 -10 18 -17 15 -13 16 -12 3 4 -13 16 -21 21 -21
13z"/>
<path d="M4130 1575 c72 -80 77 -85 52 -50 -11 17 -40 48 -63 70 -37 34 -35
31 11 -20z"/>
<path d="M2727 1612 c-5 -6 -7 -54 -6 -105 2 -83 0 -92 -17 -95 -151 -24 -289
-115 -367 -239 -58 -94 -72 -149 -72 -288 l0 -130 42 -86 c189 -387 720 -325
869 102 13 38 24 82 24 99 0 16 4 30 9 30 4 0 -11 38 -34 84 -44 88 -65 168
-65 248 0 43 -4 52 -36 81 -55 48 -96 73 -88 54 5 -13 -3 -12 -48 5 -29 11
-80 26 -113 33 -33 7 -59 17 -58 23 1 5 -2 25 -8 43 -6 19 -14 61 -17 94 -4
36 -10 55 -15 47z m53 -237 c0 -20 -27 -37 -50 -30 -29 9 -27 52 3 57 25 4 47
-8 47 -27z m88 -116 c2 -16 12 -31 28 -37 l24 -12 0 -309 c0 -285 -1 -311 -17
-319 -30 -16 -302 -25 -319 -12 -12 10 -14 64 -14 315 0 269 2 304 17 316 10
9 51 15 120 17 l103 4 0 27 c0 34 8 43 35 39 13 -2 21 -12 23 -29z"/>
<path d="M2657 1163 l-37 -4 2 -172 3 -172 120 4 c74 2 123 8 127 15 5 6 7 83
5 171 l-2 160 -90 1 c-49 1 -107 -1 -128 -3z"/>
<path d="M2648 763 c-10 -3 -18 -9 -18 -14 0 -12 37 -12 45 0 7 12 -5 19 -27
14z"/>
<path d="M2725 760 c-4 -6 5 -10 19 -10 14 0 26 5 26 10 0 6 -9 10 -19 10 -11
0 -23 -4 -26 -10z"/>
<path d="M2820 760 c0 -5 9 -10 20 -10 11 0 20 5 20 10 0 6 -9 10 -20 10 -11
0 -20 -4 -20 -10z"/>
<path d="M2725 701 c-3 -5 -1 -12 4 -15 12 -8 41 3 41 15 0 12 -37 12 -45 0z"/>
<path d="M2815 700 c-4 -6 5 -10 19 -10 14 0 26 5 26 10 0 6 -9 10 -19 10 -11
0 -23 -4 -26 -10z"/>
<path d="M2630 690 c0 -5 11 -10 25 -10 14 0 25 5 25 10 0 6 -11 10 -25 10
-14 0 -25 -4 -25 -10z"/>
<path d="M2727 643 c-14 -13 -6 -24 15 -21 27 4 36 28 11 28 -11 0 -23 -3 -26
-7z"/>
<path d="M2815 640 c-4 -6 5 -10 19 -10 14 0 26 5 26 10 0 6 -9 10 -19 10 -11
0 -23 -4 -26 -10z"/>
<path d="M2630 630 c0 -5 11 -10 25 -10 14 0 25 5 25 10 0 6 -11 10 -25 10
-14 0 -25 -4 -25 -10z"/>
<path d="M1585 1579 c-4 -6 -15 -13 -26 -17 -10 -4 -15 -12 -11 -18 4 -7 16 0
30 18 13 15 21 28 18 28 -2 0 -8 -5 -11 -11z"/>
<path d="M4227 1435 c15 -30 29 -53 31 -51 4 5 -46 106 -53 106 -3 0 7 -25 22
-55z"/>
<path d="M412 1375 c0 -16 2 -22 5 -12 2 9 2 23 0 30 -3 6 -5 -1 -5 -18z"/>
<path d="M4272 1320 c0 -14 2 -19 5 -12 2 6 2 18 0 25 -3 6 -5 1 -5 -13z"/>
<path d="M4282 1260 c0 -19 2 -27 5 -17 2 9 2 25 0 35 -3 9 -5 1 -5 -18z"/>
<path d="M4283 1150 c0 -25 2 -35 4 -22 2 12 2 32 0 45 -2 12 -4 2 -4 -23z"/>
<path d="M4268 1075 c-4 -16 -9 -39 -12 -50 -4 -11 1 -5 9 14 9 18 14 41 13
50 -2 9 -7 3 -10 -14z"/>
<path d="M560 1028 c24 -27 45 -48 47 -48 8 0 0 9 -44 50 l-48 45 45 -47z"/>
<path d="M1430 1040 c0 -5 5 -10 10 -10 6 0 10 5 10 10 0 6 -4 10 -10 10 -5 0
-10 -4 -10 -10z"/>
<path d="M4220 952 c-14 -25 -50 -73 -79 -107 l-55 -60 50 48 c47 44 122 152
113 162 -3 2 -16 -17 -29 -43z"/>
<path d="M3994 734 c-18 -14 -18 -15 4 -4 12 6 22 13 22 15 0 8 -5 6 -26 -11z"/>
<path d="M3898 693 c7 -3 16 -2 19 1 4 3 -2 6 -13 5 -11 0 -14 -3 -6 -6z"/>
<path d="M2261 685 c0 -5 6 -21 14 -35 8 -14 14 -20 14 -15 0 6 -6 21 -14 35
-8 14 -14 21 -14 15z"/>
<path d="M2310 586 c0 -2 8 -10 18 -17 15 -13 16 -12 3 4 -13 16 -21 21 -21
13z"/>
<path d="M2360 526 c0 -2 8 -10 18 -17 15 -13 16 -12 3 4 -13 16 -21 21 -21
13z"/>
</g>
</svg>
